# xmcd
#
# Track frame offsets:
#	150
#	8747
#	22986
#	34471
#	44992
#	56205
#	66762
#	78518
#	89197
#	100669
#	109920
#	123268
#	136296
#	149093
#	159118
#	169428
#	180615
#	190727
#	201696
#	212208
#	223556
#	233282
#	245733
#
# Disc length: 3417 seconds
# Revision: 0
# Processed by: cddbd v1.5.2PL0 Copyright (c) Steve Scherf et al.
# Submitted via: dBpowerAMP V12.0
#
DISCID=5e0d5717
DTITLE=Various Artist - Jukebox Jam Vol. 2
DYEAR=2010
DGENRE=
TTITLE0=Mamie Perry - Lament
TTITLE1=Billy Hamlin - If You Ain't Got No Bread (You Might as Well Stay Home in Bed)
TTITLE2=Young Jessie - Mary Lou
TTITLE3=Johnny West - Tears Baby
TTITLE4=Gil Bernal - King Solomon's Blues
TTITLE5=Dewey Guy and the Fabulous Six - Rock a While
TTITLE6=Brother Woodsmans Combo and the Chanters feat. Ethel Brown - Hot Mamma
TTITLE7=Betty James - Henry Lee
TTITLE8=Amos Milburn - I Done Done It
TTITLE9=Dave Bartholomew - Cat Music
TTITLE10=Saunders King - Swingin'
TTITLE11=Steve Gibson and the Red Caps - Big Game Hunter
TTITLE12=Big Sis Andrews - That Ain't the Way To Do It
TTITLE13=Buddy Johnson - If I Ever Find You
TTITLE14=The Mark VI - Cleopatra
TTITLE15=Barrett Strong - Misery
TTITLE16=Mary Ann Fisher - Put on My Shoes
TTITLE17=The Originals w. Steve Allan - Little Lonely Girl
TTITLE18=lly EmersonBi - I'll Get You, Too
TTITLE19=The Untouchables - Crawlin'
TTITLE20=Grainger Hunt - Noah
TTITLE21=Bob Marriott and the Continentals - I'll Walk a Mile
TTITLE22=Little Willie John - It Only Hurts a Little While
EXTD=
EXTT0=
EXTT1=
EXTT2=
EXTT3=
EXTT4=
EXTT5=
EXTT6=
EXTT7=
EXTT8=
EXTT9=
EXTT10=
EXTT11=
EXTT12=
EXTT13=
EXTT14=
EXTT15=
EXTT16=
EXTT17=
EXTT18=
EXTT19=
EXTT20=
EXTT21=
EXTT22=
PLAYORDER=
